<mxfile host="65bd71144e">
    <diagram id="zV92H9mDz_PsXAyF4NV7" name="Page-1">
        <mxGraphModel dx="799" dy="328" grid="1" gridSize="10" guides="1" tooltips="1" connect="1" arrows="1" fold="1" page="1" pageScale="1" pageWidth="850" pageHeight="1100" math="0" shadow="0">
            <root>
                <mxCell id="0"/>
                <mxCell id="1" parent="0"/>
                <mxCell id="22" value="etudiant" style="swimlane;fontStyle=0;childLayout=stackLayout;horizontal=1;startSize=30;horizontalStack=0;resizeParent=1;resizeParentMax=0;resizeLast=0;collapsible=1;marginBottom=0;whiteSpace=wrap;html=1;" vertex="1" parent="1">
                    <mxGeometry x="80" y="60" width="140" height="180" as="geometry"/>
                </mxCell>
                <mxCell id="23" value="prénom" style="text;strokeColor=none;fillColor=none;align=left;verticalAlign=middle;spacingLeft=4;spacingRight=4;overflow=hidden;points=[[0,0.5],[1,0.5]];portConstraint=eastwest;rotatable=0;whiteSpace=wrap;html=1;" vertex="1" parent="22">
                    <mxGeometry y="30" width="140" height="30" as="geometry"/>
                </mxCell>
                <mxCell id="24" value="nom" style="text;strokeColor=none;fillColor=none;align=left;verticalAlign=middle;spacingLeft=4;spacingRight=4;overflow=hidden;points=[[0,0.5],[1,0.5]];portConstraint=eastwest;rotatable=0;whiteSpace=wrap;html=1;" vertex="1" parent="22">
                    <mxGeometry y="60" width="140" height="30" as="geometry"/>
                </mxCell>
                <mxCell id="25" value="dt_naissance" style="text;strokeColor=none;fillColor=none;align=left;verticalAlign=middle;spacingLeft=4;spacingRight=4;overflow=hidden;points=[[0,0.5],[1,0.5]];portConstraint=eastwest;rotatable=0;whiteSpace=wrap;html=1;" vertex="1" parent="22">
                    <mxGeometry y="90" width="140" height="30" as="geometry"/>
                </mxCell>
                <mxCell id="26" value="email" style="text;strokeColor=none;fillColor=none;align=left;verticalAlign=middle;spacingLeft=4;spacingRight=4;overflow=hidden;points=[[0,0.5],[1,0.5]];portConstraint=eastwest;rotatable=0;whiteSpace=wrap;html=1;" vertex="1" parent="22">
                    <mxGeometry y="120" width="140" height="30" as="geometry"/>
                </mxCell>
                <mxCell id="27" value="password" style="text;strokeColor=none;fillColor=none;align=left;verticalAlign=middle;spacingLeft=4;spacingRight=4;overflow=hidden;points=[[0,0.5],[1,0.5]];portConstraint=eastwest;rotatable=0;whiteSpace=wrap;html=1;" vertex="1" parent="22">
                    <mxGeometry y="150" width="140" height="30" as="geometry"/>
                </mxCell>
                <mxCell id="28" value="formation" style="swimlane;fontStyle=0;childLayout=stackLayout;horizontal=1;startSize=30;horizontalStack=0;resizeParent=1;resizeParentMax=0;resizeLast=0;collapsible=1;marginBottom=0;whiteSpace=wrap;html=1;fillColor=#FFFFFF;fontColor=#000000;" vertex="1" parent="1">
                    <mxGeometry x="490" y="87.5" width="140" height="90" as="geometry"/>
                </mxCell>
                <mxCell id="29" value="nom" style="text;strokeColor=none;fillColor=none;align=left;verticalAlign=middle;spacingLeft=4;spacingRight=4;overflow=hidden;points=[[0,0.5],[1,0.5]];portConstraint=eastwest;rotatable=0;whiteSpace=wrap;html=1;" vertex="1" parent="28">
                    <mxGeometry y="30" width="140" height="30" as="geometry"/>
                </mxCell>
                <mxCell id="30" value="organisme" style="text;strokeColor=none;fillColor=none;align=left;verticalAlign=middle;spacingLeft=4;spacingRight=4;overflow=hidden;points=[[0,0.5],[1,0.5]];portConstraint=eastwest;rotatable=0;whiteSpace=wrap;html=1;" vertex="1" parent="28">
                    <mxGeometry y="60" width="140" height="30" as="geometry"/>
                </mxCell>
                <mxCell id="33" value="MCD Version Merise" style="text;html=1;strokeColor=none;fillColor=none;align=center;verticalAlign=middle;whiteSpace=wrap;rounded=0;fontSize=24;fontColor=#000000;" vertex="1" parent="1">
                    <mxGeometry x="200" y="10" width="300" height="30" as="geometry"/>
                </mxCell>
                <mxCell id="35" style="edgeStyle=none;html=1;fontSize=12;fontColor=#000000;endArrow=none;endFill=0;" edge="1" parent="1" source="34" target="24">
                    <mxGeometry relative="1" as="geometry"/>
                </mxCell>
                <mxCell id="36" style="edgeStyle=none;html=1;entryX=0;entryY=0.5;entryDx=0;entryDy=0;fontSize=12;fontColor=#000000;endArrow=none;endFill=0;" edge="1" parent="1" source="34" target="29">
                    <mxGeometry relative="1" as="geometry"/>
                </mxCell>
                <mxCell id="34" value="&lt;font style=&quot;font-size: 12px;&quot;&gt;suivre&lt;/font&gt;" style="rounded=1;whiteSpace=wrap;html=1;fontSize=24;fontColor=#000000;fillColor=#FFFFFF;" vertex="1" parent="1">
                    <mxGeometry x="305" y="110" width="120" height="45" as="geometry"/>
                </mxCell>
                <mxCell id="37" value="cardinalité" style="text;html=1;strokeColor=none;fillColor=none;align=center;verticalAlign=middle;whiteSpace=wrap;rounded=0;fontSize=12;fontColor=#000000;" vertex="1" parent="1">
                    <mxGeometry x="230" y="147.5" width="60" height="30" as="geometry"/>
                </mxCell>
                <mxCell id="38" value="cardinalité" style="text;html=1;strokeColor=none;fillColor=none;align=center;verticalAlign=middle;whiteSpace=wrap;rounded=0;fontSize=12;fontColor=#000000;" vertex="1" parent="1">
                    <mxGeometry x="425" y="147.5" width="60" height="30" as="geometry"/>
                </mxCell>
                <mxCell id="39" value="0,1&lt;br&gt;1,1&lt;br&gt;1,n&lt;br&gt;0,n" style="text;html=1;strokeColor=none;fillColor=none;align=center;verticalAlign=middle;whiteSpace=wrap;rounded=0;fontSize=12;fontColor=#000000;" vertex="1" parent="1">
                    <mxGeometry x="230" y="60" width="60" height="70" as="geometry"/>
                </mxCell>
                <mxCell id="40" value="0,1&lt;br&gt;1,1&lt;br&gt;1,n&lt;br&gt;0,n" style="text;html=1;strokeColor=none;fillColor=none;align=center;verticalAlign=middle;whiteSpace=wrap;rounded=0;fontSize=12;fontColor=#000000;" vertex="1" parent="1">
                    <mxGeometry x="425" y="60" width="60" height="70" as="geometry"/>
                </mxCell>
                <mxCell id="41" value="1" style="ellipse;whiteSpace=wrap;html=1;aspect=fixed;fontSize=12;fillColor=#d5e8d4;strokeColor=#82b366;" vertex="1" parent="1">
                    <mxGeometry x="150" y="40" width="20" height="20" as="geometry"/>
                </mxCell>
                <mxCell id="42" value="2" style="ellipse;whiteSpace=wrap;html=1;aspect=fixed;fontSize=12;fillColor=#d5e8d4;strokeColor=#82b366;" vertex="1" parent="1">
                    <mxGeometry x="355" y="90" width="20" height="20" as="geometry"/>
                </mxCell>
                <mxCell id="43" value="3" style="ellipse;whiteSpace=wrap;html=1;aspect=fixed;fontSize=12;fillColor=#d5e8d4;strokeColor=#82b366;" vertex="1" parent="1">
                    <mxGeometry x="250" y="40" width="20" height="20" as="geometry"/>
                </mxCell>
                <mxCell id="44" value="4" style="ellipse;whiteSpace=wrap;html=1;aspect=fixed;fontSize=12;fillColor=#d5e8d4;strokeColor=#82b366;" vertex="1" parent="1">
                    <mxGeometry x="560" y="60" width="20" height="20" as="geometry"/>
                </mxCell>
                <mxCell id="46" value="1" style="ellipse;whiteSpace=wrap;html=1;aspect=fixed;fontSize=12;fillColor=#fff2cc;strokeColor=#d6b656;" vertex="1" parent="1">
                    <mxGeometry x="560" y="200" width="20" height="20" as="geometry"/>
                </mxCell>
                <mxCell id="47" value="2" style="ellipse;whiteSpace=wrap;html=1;aspect=fixed;fontSize=12;fillColor=#fff2cc;strokeColor=#d6b656;" vertex="1" parent="1">
                    <mxGeometry x="355" y="177.5" width="20" height="20" as="geometry"/>
                </mxCell>
                <mxCell id="49" value="3" style="ellipse;whiteSpace=wrap;html=1;aspect=fixed;fontSize=12;fillColor=#fff2cc;strokeColor=#d6b656;" vertex="1" parent="1">
                    <mxGeometry x="445" y="170" width="20" height="20" as="geometry"/>
                </mxCell>
                <mxCell id="50" value="4" style="ellipse;whiteSpace=wrap;html=1;aspect=fixed;fontSize=12;fillColor=#fff2cc;strokeColor=#d6b656;" vertex="1" parent="1">
                    <mxGeometry x="170" y="230" width="20" height="20" as="geometry"/>
                </mxCell>
                <mxCell id="51" value="etudiant" style="swimlane;fontStyle=0;childLayout=stackLayout;horizontal=1;startSize=30;horizontalStack=0;resizeParent=1;resizeParentMax=0;resizeLast=0;collapsible=1;marginBottom=0;whiteSpace=wrap;html=1;" vertex="1" parent="1">
                    <mxGeometry x="80" y="370" width="140" height="180" as="geometry"/>
                </mxCell>
                <mxCell id="52" value="+ prénom" style="text;strokeColor=none;fillColor=none;align=left;verticalAlign=middle;spacingLeft=4;spacingRight=4;overflow=hidden;points=[[0,0.5],[1,0.5]];portConstraint=eastwest;rotatable=0;whiteSpace=wrap;html=1;" vertex="1" parent="51">
                    <mxGeometry y="30" width="140" height="30" as="geometry"/>
                </mxCell>
                <mxCell id="53" value="+ nom" style="text;strokeColor=none;fillColor=none;align=left;verticalAlign=middle;spacingLeft=4;spacingRight=4;overflow=hidden;points=[[0,0.5],[1,0.5]];portConstraint=eastwest;rotatable=0;whiteSpace=wrap;html=1;" vertex="1" parent="51">
                    <mxGeometry y="60" width="140" height="30" as="geometry"/>
                </mxCell>
                <mxCell id="54" value="+ dt_naissance" style="text;strokeColor=none;fillColor=none;align=left;verticalAlign=middle;spacingLeft=4;spacingRight=4;overflow=hidden;points=[[0,0.5],[1,0.5]];portConstraint=eastwest;rotatable=0;whiteSpace=wrap;html=1;" vertex="1" parent="51">
                    <mxGeometry y="90" width="140" height="30" as="geometry"/>
                </mxCell>
                <mxCell id="55" value="+ email" style="text;strokeColor=none;fillColor=none;align=left;verticalAlign=middle;spacingLeft=4;spacingRight=4;overflow=hidden;points=[[0,0.5],[1,0.5]];portConstraint=eastwest;rotatable=0;whiteSpace=wrap;html=1;" vertex="1" parent="51">
                    <mxGeometry y="120" width="140" height="30" as="geometry"/>
                </mxCell>
                <mxCell id="56" value="+ password" style="text;strokeColor=none;fillColor=none;align=left;verticalAlign=middle;spacingLeft=4;spacingRight=4;overflow=hidden;points=[[0,0.5],[1,0.5]];portConstraint=eastwest;rotatable=0;whiteSpace=wrap;html=1;" vertex="1" parent="51">
                    <mxGeometry y="150" width="140" height="30" as="geometry"/>
                </mxCell>
                <mxCell id="57" value="formation" style="swimlane;fontStyle=0;childLayout=stackLayout;horizontal=1;startSize=30;horizontalStack=0;resizeParent=1;resizeParentMax=0;resizeLast=0;collapsible=1;marginBottom=0;whiteSpace=wrap;html=1;fillColor=#FFFFFF;fontColor=#000000;" vertex="1" parent="1">
                    <mxGeometry x="490" y="397.5" width="140" height="90" as="geometry"/>
                </mxCell>
                <mxCell id="58" value="+ nom" style="text;strokeColor=none;fillColor=none;align=left;verticalAlign=middle;spacingLeft=4;spacingRight=4;overflow=hidden;points=[[0,0.5],[1,0.5]];portConstraint=eastwest;rotatable=0;whiteSpace=wrap;html=1;" vertex="1" parent="57">
                    <mxGeometry y="30" width="140" height="30" as="geometry"/>
                </mxCell>
                <mxCell id="59" value="+ organisme" style="text;strokeColor=none;fillColor=none;align=left;verticalAlign=middle;spacingLeft=4;spacingRight=4;overflow=hidden;points=[[0,0.5],[1,0.5]];portConstraint=eastwest;rotatable=0;whiteSpace=wrap;html=1;" vertex="1" parent="57">
                    <mxGeometry y="60" width="140" height="30" as="geometry"/>
                </mxCell>
                <mxCell id="60" value="MCD Version UML" style="text;html=1;strokeColor=none;fillColor=none;align=center;verticalAlign=middle;whiteSpace=wrap;rounded=0;fontSize=24;fontColor=#000000;" vertex="1" parent="1">
                    <mxGeometry x="200" y="320" width="300" height="30" as="geometry"/>
                </mxCell>
                <mxCell id="61" style="edgeStyle=none;html=1;fontSize=12;fontColor=#000000;endArrow=none;endFill=0;" edge="1" parent="1" source="58" target="53">
                    <mxGeometry relative="1" as="geometry">
                        <mxPoint x="305" y="443.1976744186046" as="sourcePoint"/>
                    </mxGeometry>
                </mxCell>
                <mxCell id="64" value="cardinalité" style="text;html=1;strokeColor=none;fillColor=none;align=center;verticalAlign=middle;whiteSpace=wrap;rounded=0;fontSize=12;fontColor=#000000;" vertex="1" parent="1">
                    <mxGeometry x="230" y="457.5" width="60" height="30" as="geometry"/>
                </mxCell>
                <mxCell id="65" value="cardinalité" style="text;html=1;strokeColor=none;fillColor=none;align=center;verticalAlign=middle;whiteSpace=wrap;rounded=0;fontSize=12;fontColor=#000000;" vertex="1" parent="1">
                    <mxGeometry x="425" y="457.5" width="60" height="30" as="geometry"/>
                </mxCell>
                <mxCell id="66" value="0,1=&amp;gt; 0..1&lt;br&gt;1,1 =&amp;gt; 1&lt;br&gt;1,n =&amp;gt; 1..*&lt;br&gt;0,n =&amp;gt; *" style="text;html=1;strokeColor=none;fillColor=none;align=center;verticalAlign=middle;whiteSpace=wrap;rounded=0;fontSize=12;fontColor=#000000;" vertex="1" parent="1">
                    <mxGeometry x="230" y="370" width="60" height="70" as="geometry"/>
                </mxCell>
                <mxCell id="67" value="0,1 =&amp;gt; 0..1&lt;br&gt;1,1 =&amp;gt; 1&lt;br&gt;1,n =&amp;gt; 1..*&lt;br&gt;0,n =&amp;gt; *" style="text;html=1;strokeColor=none;fillColor=none;align=center;verticalAlign=middle;whiteSpace=wrap;rounded=0;fontSize=12;fontColor=#000000;" vertex="1" parent="1">
                    <mxGeometry x="425" y="370" width="60" height="70" as="geometry"/>
                </mxCell>
                <mxCell id="68" value="1" style="ellipse;whiteSpace=wrap;html=1;aspect=fixed;fontSize=12;fillColor=#d5e8d4;strokeColor=#82b366;" vertex="1" parent="1">
                    <mxGeometry x="150" y="350" width="20" height="20" as="geometry"/>
                </mxCell>
                <mxCell id="69" value="2" style="ellipse;whiteSpace=wrap;html=1;aspect=fixed;fontSize=12;fillColor=#d5e8d4;strokeColor=#82b366;" vertex="1" parent="1">
                    <mxGeometry x="355" y="400" width="20" height="20" as="geometry"/>
                </mxCell>
                <mxCell id="70" value="3" style="ellipse;whiteSpace=wrap;html=1;aspect=fixed;fontSize=12;fillColor=#d5e8d4;strokeColor=#82b366;" vertex="1" parent="1">
                    <mxGeometry x="450" y="350" width="20" height="20" as="geometry"/>
                </mxCell>
                <mxCell id="71" value="4" style="ellipse;whiteSpace=wrap;html=1;aspect=fixed;fontSize=12;fillColor=#d5e8d4;strokeColor=#82b366;" vertex="1" parent="1">
                    <mxGeometry x="560" y="370" width="20" height="20" as="geometry"/>
                </mxCell>
                <mxCell id="72" value="1" style="ellipse;whiteSpace=wrap;html=1;aspect=fixed;fontSize=12;fillColor=#fff2cc;strokeColor=#d6b656;" vertex="1" parent="1">
                    <mxGeometry x="560" y="510" width="20" height="20" as="geometry"/>
                </mxCell>
                <mxCell id="73" value="2" style="ellipse;whiteSpace=wrap;html=1;aspect=fixed;fontSize=12;fillColor=#fff2cc;strokeColor=#d6b656;" vertex="1" parent="1">
                    <mxGeometry x="355" y="487.5" width="20" height="20" as="geometry"/>
                </mxCell>
                <mxCell id="74" value="3" style="ellipse;whiteSpace=wrap;html=1;aspect=fixed;fontSize=12;fillColor=#fff2cc;strokeColor=#d6b656;" vertex="1" parent="1">
                    <mxGeometry x="250" y="490" width="20" height="20" as="geometry"/>
                </mxCell>
                <mxCell id="75" value="4" style="ellipse;whiteSpace=wrap;html=1;aspect=fixed;fontSize=12;fillColor=#fff2cc;strokeColor=#d6b656;" vertex="1" parent="1">
                    <mxGeometry x="170" y="540" width="20" height="20" as="geometry"/>
                </mxCell>
                <mxCell id="76" value="suivre" style="text;html=1;strokeColor=none;fillColor=none;align=center;verticalAlign=middle;whiteSpace=wrap;rounded=0;fontSize=12;fontColor=#000000;" vertex="1" parent="1">
                    <mxGeometry x="330" y="420" width="60" height="30" as="geometry"/>
                </mxCell>
                <mxCell id="77" value="1,1" style="text;html=1;strokeColor=none;fillColor=none;align=center;verticalAlign=middle;whiteSpace=wrap;rounded=0;fontSize=12;fontColor=#000000;" vertex="1" parent="1">
                    <mxGeometry x="230" y="172" width="60" height="70" as="geometry"/>
                </mxCell>
                <mxCell id="78" value="0,n" style="text;html=1;strokeColor=none;fillColor=none;align=center;verticalAlign=middle;whiteSpace=wrap;rounded=0;fontSize=12;fontColor=#000000;" vertex="1" parent="1">
                    <mxGeometry x="430" y="184" width="60" height="70" as="geometry"/>
                </mxCell>
                <mxCell id="79" value="*" style="text;html=1;strokeColor=none;fillColor=none;align=center;verticalAlign=middle;whiteSpace=wrap;rounded=0;fontSize=12;fontColor=#000000;" vertex="1" parent="1">
                    <mxGeometry x="230" y="507.5" width="60" height="70" as="geometry"/>
                </mxCell>
                <mxCell id="80" value="1" style="text;html=1;strokeColor=none;fillColor=none;align=center;verticalAlign=middle;whiteSpace=wrap;rounded=0;fontSize=12;fontColor=#000000;" vertex="1" parent="1">
                    <mxGeometry x="425" y="490" width="60" height="70" as="geometry"/>
                </mxCell>
                <mxCell id="82" value="Diagram de Class" style="text;html=1;strokeColor=none;fillColor=none;align=center;verticalAlign=middle;whiteSpace=wrap;rounded=0;fontSize=12;fontColor=#000000;" vertex="1" parent="1">
                    <mxGeometry x="80" y="570" width="140" height="30" as="geometry"/>
                </mxCell>
            </root>
        </mxGraphModel>
    </diagram>
</mxfile>